M48
METRIC,LZ,000.000
;FILE_FORMAT=3:3
;TYPE=PLATED
;Layer: PTH_Through
;EasyEDA v6.5.54, 2026-02-06 19:08:49
;4cf94d710e704693a343972755933389,ab8ce68afc924fbca291fda1b5b5a17a,10
;Gerber Generator version 0.2
;Holesize 1 = 0.306 mm
T01C0.306
;Holesize 2 = 0.310 mm
T02C0.310
;Holesize 3 = 0.400 mm
T03C0.400
;Holesize 4 = 0.600 mm
T04C0.600
;Holesize 5 = 0.800 mm
T05C0.800
;Holesize 6 = 1.000 mm
T06C1.000
;Holesize 7 = 1.050 mm
T07C1.050
;Holesize 8 = 1.101 mm
T08C1.101
;Holesize 9 = 1.200 mm
T09C1.200
%
G05
G90
T01
X036879Y-005089
X037002Y-006801
X016746Y-019530
X019578Y-003720
X032626Y-001912
X041895Y-038317
X036319Y-008679
X029718Y-025617
X026965Y-011764
X032467Y-025689
X023072Y-010741
X028956Y-028194
X011135Y035801
X037465Y-038989
X029861Y036312
X022737Y014665
X023686Y-008077
X043491Y005236
X041897Y-000521
X044639Y024915
X017933Y-036445
X018505Y-024603
X015127Y-036392
X018854Y-023367
X042975Y-031077
X022854Y-015725
X040327Y-038165
X042638Y-025099
X037584Y-033499
X040739Y-026904
X052440Y-014227
X037365Y-025794
X031981Y-023089
X035291Y-026019
X025527Y-028575
X024706Y-023165
X024638Y-025589
X023284Y-025640
X020372Y-038158
X020360Y-039629
X020364Y-040858
X017526Y-004754
X022839Y-028465
X019430Y-009478
X046149Y023072
X040636Y-007942
X036057Y-005836
X036523Y-007403
X042226Y-022866
X031322Y-018760
X024705Y-005462
X034826Y-030784
X040547Y-036462
X040813Y-033208
X042009Y-028022
X016025Y-004736
X022745Y-009873
T02
X020320Y-028321
X024130Y-028829
X027686Y-026289
X020828Y-024638
X040767Y-020320
X051689Y022352
X030734Y-026670
X027051Y-016002
X024511Y028321
X043180Y-015240
X023761Y026404
X045212Y-016891
T03
X030907Y012301
X022852Y-013722
X015796Y-006197
X044944Y-027144
X025578Y011856
X017027Y-013861
T04
X028831Y031620G85X028831Y030520
X020192Y031620G85X020192Y030520
X020192Y035670G85X020192Y034870
X028831Y035670G85X028831Y034870
T05
X013334Y025511
X013334Y023511
T06
X048240Y033655
X045740Y033655
T07
X053848Y-006731
X053848Y-009271
X053848Y-011811
X053848Y-014351
X053848Y-016891
X053848Y-019431
X053848Y-021971
X053848Y-024511
X053848Y-027051
X053848Y-029591
X053848Y-032131
X053848Y-034671
X053848Y-037211
X053848Y-039751
X053848Y-042291
X010033Y-042164
X010033Y-039624
X010033Y-037084
X010033Y-034544
X010033Y-032004
X010033Y-029464
X010033Y-026924
X010033Y-024384
X010033Y-021844
X010033Y-019304
X010033Y-016764
X010033Y-014224
X010033Y-011684
X010033Y-009144
X010033Y-006604
T08
X011684Y019685
X011684Y017145
X014097Y-042799
X016637Y-042799
T09
X050419Y-037592
X050419Y-040132
X050419Y-042672
M30
