G04 Layer: TopPasteMaskLayer*
G04 EasyEDA v6.5.54, 2026-02-06 19:08:49*
G04 4cf94d710e704693a343972755933389,ab8ce68afc924fbca291fda1b5b5a17a,10*
G04 Gerber Generator version 0.2*
G04 Scale: 100 percent, Rotated: No, Reflected: No *
G04 Dimensions in millimeters *
G04 leading zeros omitted , absolute positions ,4 integer and 5 decimal *
%FSLAX45Y45*%
%MOMM*%

%AMMACRO1*21,1,$1,$2,0,0,$3*%
%ADD10R,1.8000X1.0000*%
%ADD11R,1.6500X4.5000*%
%ADD12R,1.3995X1.3005*%
%ADD13R,1.3005X1.3995*%
%ADD14R,1.2000X0.6000*%
%ADD15R,2.4000X3.3000*%
%ADD16MACRO1,0.98X2.47X90.0000*%
%ADD17C,0.0141*%
%ADD18MACRO1,3.6X2.47X-90.0000*%
%ADD19R,0.9000X0.8000*%
%ADD20R,0.8000X0.9000*%
%ADD21R,3.2004X1.5240*%
%ADD22O,1.499997X0.399999*%
%ADD23R,0.5500X1.0000*%
%ADD24R,0.6000X1.2000*%
%ADD25R,2.2000X4.9000*%
%ADD26O,0.799998X1.999996*%
%ADD27O,1.999996X0.799998*%
%ADD28R,3.0000X3.0000*%
%ADD29R,1.5000X1.5000*%
%ADD30R,1.5000X0.9000*%
%ADD31R,0.9000X1.5000*%
%ADD32R,0.9000X0.9000*%
%ADD33O,0.58801X2.045005*%
%ADD34R,1.0500X1.0000*%
%ADD35R,2.2000X1.0500*%

%LPD*%
G36*
X2311196Y3108858D02*
G01*
X2311196Y2994863D01*
X2341168Y2994863D01*
X2341168Y3108858D01*
G37*
G36*
X2611170Y3108858D02*
G01*
X2611170Y2994863D01*
X2641142Y2994863D01*
X2641142Y3108858D01*
G37*
G36*
X2746146Y3108960D02*
G01*
X2746146Y2994964D01*
X2796133Y2994964D01*
X2796133Y3108960D01*
G37*
G36*
X2106168Y3108960D02*
G01*
X2106168Y2994964D01*
X2156155Y2994964D01*
X2156155Y3108960D01*
G37*
G36*
X2666136Y3108960D02*
G01*
X2666136Y2994964D01*
X2716174Y2994964D01*
X2716174Y3108960D01*
G37*
G36*
X2186127Y3108960D02*
G01*
X2186127Y2994964D01*
X2236165Y2994964D01*
X2236165Y3108960D01*
G37*
G36*
X2461158Y3108960D02*
G01*
X2461158Y2994964D01*
X2491130Y2994964D01*
X2491130Y3108960D01*
G37*
G36*
X2411171Y3108960D02*
G01*
X2411171Y2994964D01*
X2441143Y2994964D01*
X2441143Y3108960D01*
G37*
G36*
X2361133Y3108960D02*
G01*
X2361133Y2994964D01*
X2391156Y2994964D01*
X2391156Y3108960D01*
G37*
G36*
X2511145Y3108960D02*
G01*
X2511145Y2994964D01*
X2541168Y2994964D01*
X2541168Y3108960D01*
G37*
G36*
X2561132Y3108960D02*
G01*
X2561132Y2994964D01*
X2591155Y2994964D01*
X2591155Y3108960D01*
G37*
G36*
X2261158Y3108960D02*
G01*
X2261158Y2994964D01*
X2291130Y2994964D01*
X2291130Y3108960D01*
G37*
G36*
X2017877Y3206953D02*
G01*
X2012950Y3206546D01*
X2008022Y3205683D01*
X2003247Y3204362D01*
X1998573Y3202533D01*
X1994154Y3200247D01*
X1989937Y3197555D01*
X1986076Y3194456D01*
X1982520Y3190951D01*
X1979269Y3187141D01*
X1976475Y3183026D01*
X1974088Y3178657D01*
X1972157Y3174085D01*
X1970684Y3169310D01*
X1969719Y3164433D01*
X1969211Y3159455D01*
X1969160Y3056940D01*
X1969414Y3051962D01*
X1970125Y3047034D01*
X1971395Y3042208D01*
X1973072Y3037535D01*
X1975256Y3033064D01*
X1977847Y3028797D01*
X1980844Y3024835D01*
X1984248Y3021177D01*
X1987956Y3017875D01*
X1992020Y3014980D01*
X1996338Y3012490D01*
X2000859Y3010408D01*
X2005584Y3008833D01*
X2010460Y3007715D01*
X2015388Y3007106D01*
X2020417Y3006953D01*
X2025345Y3007360D01*
X2030272Y3008223D01*
X2035048Y3009544D01*
X2039721Y3011373D01*
X2044141Y3013659D01*
X2048357Y3016351D01*
X2052218Y3019450D01*
X2055774Y3022955D01*
X2059025Y3026765D01*
X2061819Y3030880D01*
X2064207Y3035249D01*
X2066137Y3039872D01*
X2067610Y3044647D01*
X2068575Y3049524D01*
X2069084Y3054451D01*
X2069134Y3156966D01*
X2068880Y3161944D01*
X2068169Y3166872D01*
X2066950Y3171698D01*
X2065223Y3176371D01*
X2063038Y3180892D01*
X2060448Y3185109D01*
X2057450Y3189071D01*
X2054047Y3192729D01*
X2050338Y3196031D01*
X2046274Y3198977D01*
X2041956Y3201466D01*
X2037435Y3203498D01*
X2032711Y3205073D01*
X2027834Y3206191D01*
X2022906Y3206800D01*
G37*
G36*
X2881884Y3206953D02*
G01*
X2876956Y3206597D01*
X2872028Y3205734D01*
X2867253Y3204362D01*
X2862580Y3202584D01*
X2858160Y3200298D01*
X2853944Y3197606D01*
X2850083Y3194456D01*
X2846527Y3191002D01*
X2843276Y3187192D01*
X2840482Y3183077D01*
X2838094Y3178657D01*
X2836164Y3174085D01*
X2834690Y3169310D01*
X2833725Y3164433D01*
X2833217Y3159455D01*
X2833166Y3056991D01*
X2833420Y3052013D01*
X2834132Y3047085D01*
X2835351Y3042259D01*
X2837078Y3037586D01*
X2839262Y3033064D01*
X2841853Y3028797D01*
X2844850Y3024835D01*
X2848254Y3021177D01*
X2851962Y3017875D01*
X2856026Y3014980D01*
X2860344Y3012490D01*
X2864866Y3010458D01*
X2869590Y3008833D01*
X2874467Y3007766D01*
X2879394Y3007106D01*
X2884424Y3007004D01*
X2889351Y3007360D01*
X2894279Y3008223D01*
X2899054Y3009595D01*
X2903728Y3011424D01*
X2908147Y3013659D01*
X2912364Y3016402D01*
X2916224Y3019501D01*
X2919831Y3022955D01*
X2923032Y3026816D01*
X2925826Y3030931D01*
X2928213Y3035300D01*
X2930144Y3039872D01*
X2931617Y3044647D01*
X2932582Y3049524D01*
X2933090Y3054502D01*
X2933141Y3156966D01*
X2932887Y3161944D01*
X2932176Y3166872D01*
X2930906Y3171698D01*
X2929229Y3176422D01*
X2927045Y3180892D01*
X2924454Y3185160D01*
X2921457Y3189122D01*
X2918053Y3192780D01*
X2914345Y3196082D01*
X2910281Y3198977D01*
X2905963Y3201466D01*
X2901442Y3203549D01*
X2896717Y3205124D01*
X2891840Y3206242D01*
X2886913Y3206851D01*
G37*
G36*
X2017877Y3616960D02*
G01*
X2012950Y3616604D01*
X2008022Y3615740D01*
X2003247Y3614369D01*
X1998573Y3612540D01*
X1994154Y3610254D01*
X1989937Y3607562D01*
X1986076Y3604463D01*
X1982520Y3600958D01*
X1979269Y3597148D01*
X1976475Y3593033D01*
X1974088Y3588664D01*
X1972157Y3584092D01*
X1970684Y3579317D01*
X1969719Y3574440D01*
X1969211Y3569462D01*
X1969160Y3486962D01*
X1969414Y3481984D01*
X1970125Y3477056D01*
X1971395Y3472230D01*
X1973072Y3467557D01*
X1975256Y3463036D01*
X1977847Y3458819D01*
X1980844Y3454857D01*
X1984248Y3451199D01*
X1987956Y3447897D01*
X1992020Y3444951D01*
X1996338Y3442462D01*
X2000859Y3440429D01*
X2005584Y3438855D01*
X2010460Y3437737D01*
X2015388Y3437128D01*
X2020417Y3436975D01*
X2025345Y3437382D01*
X2030272Y3438245D01*
X2035048Y3439566D01*
X2039721Y3441395D01*
X2044141Y3443681D01*
X2048357Y3446373D01*
X2052218Y3449472D01*
X2055774Y3452977D01*
X2059025Y3456787D01*
X2061819Y3460902D01*
X2064207Y3465271D01*
X2066137Y3469894D01*
X2067610Y3474618D01*
X2068575Y3479546D01*
X2069084Y3484473D01*
X2069134Y3566972D01*
X2068880Y3571951D01*
X2068169Y3576878D01*
X2066950Y3581704D01*
X2065223Y3586378D01*
X2063038Y3590899D01*
X2060448Y3595115D01*
X2057450Y3599129D01*
X2054047Y3602786D01*
X2050338Y3606088D01*
X2046274Y3608984D01*
X2041956Y3611473D01*
X2037435Y3613505D01*
X2032711Y3615080D01*
X2027834Y3616198D01*
X2022906Y3616807D01*
G37*
G36*
X2881884Y3616960D02*
G01*
X2876956Y3616604D01*
X2872028Y3615740D01*
X2867253Y3614369D01*
X2862580Y3612540D01*
X2858160Y3610254D01*
X2853944Y3607562D01*
X2850083Y3604463D01*
X2846527Y3600958D01*
X2843276Y3597148D01*
X2840482Y3593033D01*
X2838094Y3588664D01*
X2836164Y3584092D01*
X2834690Y3579317D01*
X2833725Y3574440D01*
X2833217Y3569462D01*
X2833166Y3486962D01*
X2833420Y3481984D01*
X2834132Y3477056D01*
X2835351Y3472230D01*
X2837078Y3467557D01*
X2839262Y3463036D01*
X2841853Y3458819D01*
X2844850Y3454857D01*
X2848254Y3451199D01*
X2851962Y3447897D01*
X2856026Y3444951D01*
X2860344Y3442462D01*
X2864866Y3440429D01*
X2869590Y3438855D01*
X2874467Y3437737D01*
X2879394Y3437128D01*
X2884424Y3436975D01*
X2889351Y3437382D01*
X2894279Y3438245D01*
X2899054Y3439566D01*
X2903728Y3441395D01*
X2908147Y3443681D01*
X2912364Y3446373D01*
X2916224Y3449472D01*
X2919831Y3452977D01*
X2923032Y3456787D01*
X2925826Y3460902D01*
X2928213Y3465271D01*
X2930144Y3469894D01*
X2931617Y3474618D01*
X2932582Y3479546D01*
X2933090Y3484473D01*
X2933141Y3566972D01*
X2932887Y3571951D01*
X2932176Y3576878D01*
X2930906Y3581704D01*
X2929229Y3586378D01*
X2927045Y3590899D01*
X2924454Y3595115D01*
X2921457Y3599129D01*
X2918053Y3602786D01*
X2914345Y3606088D01*
X2910281Y3608984D01*
X2905963Y3611473D01*
X2901442Y3613505D01*
X2896717Y3615080D01*
X2891840Y3616198D01*
X2886913Y3616807D01*
G37*
G36*
X2550820Y2784906D02*
G01*
X2545791Y2779877D01*
X2545791Y2699918D01*
X2550820Y2694889D01*
X2630779Y2694889D01*
X2635808Y2699918D01*
X2635808Y2779877D01*
X2630779Y2784906D01*
X2608021Y2784906D01*
X2608021Y2747873D01*
X2575001Y2747873D01*
X2575001Y2784906D01*
G37*
G36*
X2550820Y2943910D02*
G01*
X2545791Y2938881D01*
X2545791Y2858922D01*
X2550820Y2853893D01*
X2573578Y2853893D01*
X2573578Y2890926D01*
X2606598Y2890926D01*
X2606598Y2853893D01*
X2630779Y2853893D01*
X2635808Y2858922D01*
X2635808Y2938881D01*
X2630779Y2943910D01*
G37*
G36*
X2233320Y2784906D02*
G01*
X2228291Y2779877D01*
X2228291Y2699918D01*
X2233320Y2694889D01*
X2313279Y2694889D01*
X2318308Y2699918D01*
X2318308Y2779877D01*
X2313279Y2784906D01*
X2290521Y2784906D01*
X2290521Y2747873D01*
X2257501Y2747873D01*
X2257501Y2784906D01*
G37*
G36*
X2233320Y2943910D02*
G01*
X2228291Y2938881D01*
X2228291Y2858922D01*
X2233320Y2853893D01*
X2256078Y2853893D01*
X2256078Y2890926D01*
X2289098Y2890926D01*
X2289098Y2853893D01*
X2313279Y2853893D01*
X2318308Y2858922D01*
X2318308Y2938881D01*
X2313279Y2943910D01*
G37*
G36*
X3220618Y2432608D02*
G01*
X3215589Y2427579D01*
X3215589Y2347620D01*
X3220618Y2342591D01*
X3300577Y2342591D01*
X3305606Y2347620D01*
X3305606Y2370378D01*
X3268624Y2370378D01*
X3268624Y2403398D01*
X3305606Y2403398D01*
X3305606Y2427579D01*
X3300577Y2432608D01*
G37*
G36*
X3379622Y2432608D02*
G01*
X3374593Y2427579D01*
X3374593Y2404821D01*
X3411575Y2404821D01*
X3411575Y2371801D01*
X3374593Y2371801D01*
X3374593Y2347620D01*
X3379622Y2342591D01*
X3459581Y2342591D01*
X3464610Y2347620D01*
X3464610Y2427579D01*
X3459581Y2432608D01*
G37*
G36*
X3900322Y2305608D02*
G01*
X3895293Y2300579D01*
X3895293Y2277821D01*
X3932275Y2277821D01*
X3932275Y2244801D01*
X3895293Y2244801D01*
X3895293Y2220620D01*
X3900322Y2215591D01*
X3980281Y2215591D01*
X3985310Y2220620D01*
X3985310Y2300579D01*
X3980281Y2305608D01*
G37*
G36*
X3741318Y2305608D02*
G01*
X3736289Y2300579D01*
X3736289Y2220620D01*
X3741318Y2215591D01*
X3821277Y2215591D01*
X3826306Y2220620D01*
X3826306Y2243378D01*
X3789324Y2243378D01*
X3789324Y2276398D01*
X3826306Y2276398D01*
X3826306Y2300579D01*
X3821277Y2305608D01*
G37*
G36*
X2169820Y2200706D02*
G01*
X2164791Y2195677D01*
X2164791Y2115718D01*
X2169820Y2110689D01*
X2249779Y2110689D01*
X2254808Y2115718D01*
X2254808Y2195677D01*
X2249779Y2200706D01*
X2227021Y2200706D01*
X2227021Y2163673D01*
X2194001Y2163673D01*
X2194001Y2200706D01*
G37*
G36*
X2169820Y2359710D02*
G01*
X2164791Y2354681D01*
X2164791Y2274722D01*
X2169820Y2269693D01*
X2192578Y2269693D01*
X2192578Y2306726D01*
X2225598Y2306726D01*
X2225598Y2269693D01*
X2249779Y2269693D01*
X2254808Y2274722D01*
X2254808Y2354681D01*
X2249779Y2359710D01*
G37*
G36*
X1763420Y2105710D02*
G01*
X1758391Y2100681D01*
X1758391Y2020722D01*
X1763420Y2015693D01*
X1786178Y2015693D01*
X1786178Y2052726D01*
X1819198Y2052726D01*
X1819198Y2015693D01*
X1843379Y2015693D01*
X1848408Y2020722D01*
X1848408Y2100681D01*
X1843379Y2105710D01*
G37*
G36*
X1763420Y1946706D02*
G01*
X1758391Y1941677D01*
X1758391Y1861718D01*
X1763420Y1856689D01*
X1843379Y1856689D01*
X1848408Y1861718D01*
X1848408Y1941677D01*
X1843379Y1946706D01*
X1820621Y1946706D01*
X1820621Y1909673D01*
X1787601Y1909673D01*
X1787601Y1946706D01*
G37*
G36*
X1407820Y1756206D02*
G01*
X1402791Y1751177D01*
X1402791Y1671218D01*
X1407820Y1666189D01*
X1487779Y1666189D01*
X1492808Y1671218D01*
X1492808Y1751177D01*
X1487779Y1756206D01*
X1465021Y1756206D01*
X1465021Y1719173D01*
X1432001Y1719173D01*
X1432001Y1756206D01*
G37*
G36*
X1407820Y1915210D02*
G01*
X1402791Y1910181D01*
X1402791Y1830222D01*
X1407820Y1825193D01*
X1430578Y1825193D01*
X1430578Y1862226D01*
X1463598Y1862226D01*
X1463598Y1825193D01*
X1487779Y1825193D01*
X1492808Y1830222D01*
X1492808Y1910181D01*
X1487779Y1915210D01*
G37*
G36*
X4062120Y61010D02*
G01*
X4057091Y55981D01*
X4057091Y-23977D01*
X4062120Y-29006D01*
X4084878Y-29006D01*
X4084878Y8026D01*
X4117898Y8026D01*
X4117898Y-29006D01*
X4142079Y-29006D01*
X4147108Y-23977D01*
X4147108Y55981D01*
X4142079Y61010D01*
G37*
G36*
X4062120Y-97993D02*
G01*
X4057091Y-103022D01*
X4057091Y-182981D01*
X4062120Y-188010D01*
X4142079Y-188010D01*
X4147108Y-182981D01*
X4147108Y-103022D01*
X4142079Y-97993D01*
X4119321Y-97993D01*
X4119321Y-135026D01*
X4086301Y-135026D01*
X4086301Y-97993D01*
G37*
G36*
X4201820Y-3533089D02*
G01*
X4196791Y-3538118D01*
X4196791Y-3618077D01*
X4201820Y-3623106D01*
X4224578Y-3623106D01*
X4224578Y-3586073D01*
X4257598Y-3586073D01*
X4257598Y-3623106D01*
X4281779Y-3623106D01*
X4286808Y-3618077D01*
X4286808Y-3538118D01*
X4281779Y-3533089D01*
G37*
G36*
X4201820Y-3692093D02*
G01*
X4196791Y-3697122D01*
X4196791Y-3777081D01*
X4201820Y-3782110D01*
X4281779Y-3782110D01*
X4286808Y-3777081D01*
X4286808Y-3697122D01*
X4281779Y-3692093D01*
X4259021Y-3692093D01*
X4259021Y-3729126D01*
X4226001Y-3729126D01*
X4226001Y-3692093D01*
G37*
G36*
X1903120Y-2542489D02*
G01*
X1898091Y-2547518D01*
X1898091Y-2627477D01*
X1903120Y-2632506D01*
X1925878Y-2632506D01*
X1925878Y-2595473D01*
X1958898Y-2595473D01*
X1958898Y-2632506D01*
X1983079Y-2632506D01*
X1988108Y-2627477D01*
X1988108Y-2547518D01*
X1983079Y-2542489D01*
G37*
G36*
X1903120Y-2701493D02*
G01*
X1898091Y-2706522D01*
X1898091Y-2786481D01*
X1903120Y-2791510D01*
X1983079Y-2791510D01*
X1988108Y-2786481D01*
X1988108Y-2706522D01*
X1983079Y-2701493D01*
X1960321Y-2701493D01*
X1960321Y-2738526D01*
X1927301Y-2738526D01*
X1927301Y-2701493D01*
G37*
G36*
X4370222Y-2152091D02*
G01*
X4365193Y-2157120D01*
X4365193Y-2179878D01*
X4402175Y-2179878D01*
X4402175Y-2212898D01*
X4365193Y-2212898D01*
X4365193Y-2237079D01*
X4370222Y-2242108D01*
X4450181Y-2242108D01*
X4455210Y-2237079D01*
X4455210Y-2157120D01*
X4450181Y-2152091D01*
G37*
G36*
X4211218Y-2152091D02*
G01*
X4206189Y-2157120D01*
X4206189Y-2237079D01*
X4211218Y-2242108D01*
X4291177Y-2242108D01*
X4296206Y-2237079D01*
X4296206Y-2214321D01*
X4259224Y-2214321D01*
X4259224Y-2181301D01*
X4296206Y-2181301D01*
X4296206Y-2157120D01*
X4291177Y-2152091D01*
G37*
G36*
X4281322Y-1682191D02*
G01*
X4276293Y-1687220D01*
X4276293Y-1709978D01*
X4313275Y-1709978D01*
X4313275Y-1742998D01*
X4276293Y-1742998D01*
X4276293Y-1767179D01*
X4281322Y-1772208D01*
X4361281Y-1772208D01*
X4366310Y-1767179D01*
X4366310Y-1687220D01*
X4361281Y-1682191D01*
G37*
G36*
X4122318Y-1682191D02*
G01*
X4117289Y-1687220D01*
X4117289Y-1767179D01*
X4122318Y-1772208D01*
X4202277Y-1772208D01*
X4207306Y-1767179D01*
X4207306Y-1744421D01*
X4170324Y-1744421D01*
X4170324Y-1711401D01*
X4207306Y-1711401D01*
X4207306Y-1687220D01*
X4202277Y-1682191D01*
G37*
G36*
X4058818Y-3155391D02*
G01*
X4053789Y-3160420D01*
X4053789Y-3240379D01*
X4058818Y-3245408D01*
X4138777Y-3245408D01*
X4143806Y-3240379D01*
X4143806Y-3217621D01*
X4106824Y-3217621D01*
X4106824Y-3184601D01*
X4143806Y-3184601D01*
X4143806Y-3160420D01*
X4138777Y-3155391D01*
G37*
G36*
X4217822Y-3155391D02*
G01*
X4212793Y-3160420D01*
X4212793Y-3183178D01*
X4249775Y-3183178D01*
X4249775Y-3216198D01*
X4212793Y-3216198D01*
X4212793Y-3240379D01*
X4217822Y-3245408D01*
X4297781Y-3245408D01*
X4302810Y-3240379D01*
X4302810Y-3160420D01*
X4297781Y-3155391D01*
G37*
G36*
X1658518Y-1136091D02*
G01*
X1653489Y-1141120D01*
X1653489Y-1221079D01*
X1658518Y-1226108D01*
X1738477Y-1226108D01*
X1743506Y-1221079D01*
X1743506Y-1198321D01*
X1706473Y-1198321D01*
X1706473Y-1165301D01*
X1743506Y-1165301D01*
X1743506Y-1141120D01*
X1738477Y-1136091D01*
G37*
G36*
X1817522Y-1136091D02*
G01*
X1812493Y-1141120D01*
X1812493Y-1163878D01*
X1849526Y-1163878D01*
X1849526Y-1196898D01*
X1812493Y-1196898D01*
X1812493Y-1221079D01*
X1817522Y-1226108D01*
X1897481Y-1226108D01*
X1902510Y-1221079D01*
X1902510Y-1141120D01*
X1897481Y-1136091D01*
G37*
G36*
X4408322Y-2558491D02*
G01*
X4403293Y-2563520D01*
X4403293Y-2586278D01*
X4440275Y-2586278D01*
X4440275Y-2619298D01*
X4403293Y-2619298D01*
X4403293Y-2643479D01*
X4408322Y-2648508D01*
X4488281Y-2648508D01*
X4493310Y-2643479D01*
X4493310Y-2563520D01*
X4488281Y-2558491D01*
G37*
G36*
X4249318Y-2558491D02*
G01*
X4244289Y-2563520D01*
X4244289Y-2643479D01*
X4249318Y-2648508D01*
X4329277Y-2648508D01*
X4334306Y-2643479D01*
X4334306Y-2620721D01*
X4297324Y-2620721D01*
X4297324Y-2587701D01*
X4334306Y-2587701D01*
X4334306Y-2563520D01*
X4329277Y-2558491D01*
G37*
G36*
X4357522Y-1301191D02*
G01*
X4352493Y-1306220D01*
X4352493Y-1328978D01*
X4389475Y-1328978D01*
X4389475Y-1361998D01*
X4352493Y-1361998D01*
X4352493Y-1386179D01*
X4357522Y-1391208D01*
X4437481Y-1391208D01*
X4442510Y-1386179D01*
X4442510Y-1306220D01*
X4437481Y-1301191D01*
G37*
G36*
X4198518Y-1301191D02*
G01*
X4193489Y-1306220D01*
X4193489Y-1386179D01*
X4198518Y-1391208D01*
X4278477Y-1391208D01*
X4283506Y-1386179D01*
X4283506Y-1363421D01*
X4246524Y-1363421D01*
X4246524Y-1330401D01*
X4283506Y-1330401D01*
X4283506Y-1306220D01*
X4278477Y-1301191D01*
G37*
G36*
X1382420Y-3609289D02*
G01*
X1377391Y-3614318D01*
X1377391Y-3694277D01*
X1382420Y-3699306D01*
X1405178Y-3699306D01*
X1405178Y-3662273D01*
X1438198Y-3662273D01*
X1438198Y-3699306D01*
X1462379Y-3699306D01*
X1467408Y-3694277D01*
X1467408Y-3614318D01*
X1462379Y-3609289D01*
G37*
G36*
X1382420Y-3768293D02*
G01*
X1377391Y-3773322D01*
X1377391Y-3853281D01*
X1382420Y-3858310D01*
X1462379Y-3858310D01*
X1467408Y-3853281D01*
X1467408Y-3773322D01*
X1462379Y-3768293D01*
X1439621Y-3768293D01*
X1439621Y-3805326D01*
X1406601Y-3805326D01*
X1406601Y-3768293D01*
G37*
G36*
X1661820Y-3621989D02*
G01*
X1656791Y-3627018D01*
X1656791Y-3706977D01*
X1661820Y-3712006D01*
X1684578Y-3712006D01*
X1684578Y-3674973D01*
X1717598Y-3674973D01*
X1717598Y-3712006D01*
X1741779Y-3712006D01*
X1746808Y-3706977D01*
X1746808Y-3627018D01*
X1741779Y-3621989D01*
G37*
G36*
X1661820Y-3780993D02*
G01*
X1656791Y-3786022D01*
X1656791Y-3865981D01*
X1661820Y-3871010D01*
X1741779Y-3871010D01*
X1746808Y-3865981D01*
X1746808Y-3786022D01*
X1741779Y-3780993D01*
X1719021Y-3780993D01*
X1719021Y-3818026D01*
X1686001Y-3818026D01*
X1686001Y-3780993D01*
G37*
G36*
X4205122Y222808D02*
G01*
X4200093Y217779D01*
X4200093Y195021D01*
X4237075Y195021D01*
X4237075Y162001D01*
X4200093Y162001D01*
X4200093Y137820D01*
X4205122Y132791D01*
X4285081Y132791D01*
X4290110Y137820D01*
X4290110Y217779D01*
X4285081Y222808D01*
G37*
G36*
X4046118Y222808D02*
G01*
X4041089Y217779D01*
X4041089Y137820D01*
X4046118Y132791D01*
X4126077Y132791D01*
X4131106Y137820D01*
X4131106Y160578D01*
X4094124Y160578D01*
X4094124Y193598D01*
X4131106Y193598D01*
X4131106Y217779D01*
X4126077Y222808D01*
G37*
D10*
G01*
X1817090Y3127857D03*
G01*
X1817090Y3577869D03*
G01*
X977112Y3127857D03*
G01*
X977112Y3577869D03*
G01*
X3963390Y3115157D03*
G01*
X3963390Y3565169D03*
G01*
X3123412Y3115157D03*
G01*
X3123412Y3565169D03*
D11*
G01*
X1270000Y1021486D03*
G01*
X1270000Y121513D03*
G01*
X2374900Y1034186D03*
G01*
X2374900Y134213D03*
D12*
G01*
X4152900Y2683129D03*
G01*
X4152900Y2473070D03*
D13*
G01*
X3603370Y2679700D03*
G01*
X3813429Y2679700D03*
D14*
G01*
X2414270Y2425700D03*
G01*
X2414270Y2298700D03*
G01*
X2414270Y2171700D03*
G01*
X2414270Y2044700D03*
G01*
X2995929Y2044700D03*
G01*
X2995929Y2171700D03*
G01*
X2995929Y2298700D03*
G01*
X2995929Y2425700D03*
D15*
G01*
X2705100Y2235200D03*
D16*
G01*
X3560099Y1497199D03*
G01*
X3560099Y1727200D03*
G01*
X3560099Y1957200D03*
D18*
G01*
X2993100Y1727200D03*
D19*
G01*
X1625600Y1720697D03*
G01*
X1625600Y1860702D03*
D20*
G01*
X1707997Y2667000D03*
G01*
X1848002Y2667000D03*
D19*
G01*
X3187700Y2571597D03*
G01*
X3187700Y2711602D03*
G01*
X4292600Y6502D03*
G01*
X4292600Y-133502D03*
G01*
X4165600Y374497D03*
G01*
X4165600Y514502D03*
D21*
G01*
X4978400Y6350D03*
G01*
X4978400Y628650D03*
D22*
G01*
X2593340Y1439163D03*
G01*
X2593340Y1504187D03*
G01*
X2593340Y1569212D03*
G01*
X2593340Y1634236D03*
G01*
X1953259Y1439163D03*
G01*
X1953259Y1504187D03*
G01*
X1953259Y1569212D03*
G01*
X1953259Y1634236D03*
D23*
G01*
X1898395Y2209495D03*
G01*
X1803400Y2209495D03*
G01*
X1708404Y2209495D03*
G01*
X1708404Y2489504D03*
G01*
X1803400Y2489504D03*
G01*
X1898395Y2489504D03*
D24*
G01*
X4426204Y574497D03*
G01*
X4521200Y574497D03*
G01*
X4616195Y574497D03*
G01*
X4616195Y314502D03*
G01*
X4521200Y314502D03*
G01*
X4426204Y314502D03*
D25*
G01*
X4079290Y1397000D03*
G01*
X5039309Y1397000D03*
D20*
G01*
X3549497Y1257300D03*
G01*
X3689502Y1257300D03*
G01*
X3333902Y1257300D03*
G01*
X3193897Y1257300D03*
G01*
X4400702Y-3937000D03*
G01*
X4260697Y-3937000D03*
G01*
X4413402Y-4140200D03*
G01*
X4273397Y-4140200D03*
D19*
G01*
X4432300Y-3727602D03*
G01*
X4432300Y-3587597D03*
D20*
G01*
X4209897Y-3403600D03*
G01*
X4349902Y-3403600D03*
G01*
X1848002Y-1524000D03*
G01*
X1707997Y-1524000D03*
G01*
X4794097Y2400300D03*
G01*
X4934102Y2400300D03*
G01*
X4603902Y2400300D03*
G01*
X4463897Y2400300D03*
G01*
X1835302Y-1841500D03*
G01*
X1695297Y-1841500D03*
G01*
X1835302Y-2044700D03*
G01*
X1695297Y-2044700D03*
D26*
G01*
X3742588Y-337312D03*
G01*
X3622598Y-337312D03*
G01*
X3502609Y-337312D03*
G01*
X3382594Y-337312D03*
G01*
X3262604Y-337312D03*
G01*
X3142589Y-337312D03*
G01*
X3022600Y-337312D03*
G01*
X2902584Y-337312D03*
G01*
X2782595Y-337312D03*
G01*
X2662605Y-337312D03*
G01*
X2542590Y-337312D03*
G01*
X2422601Y-337312D03*
G01*
X2302586Y-337312D03*
D27*
G01*
X3922598Y-477316D03*
G01*
X3922598Y-597306D03*
G01*
X3922598Y-717321D03*
G01*
X3922598Y-837311D03*
G01*
X3922598Y-957326D03*
G01*
X3922598Y-1077315D03*
G01*
X3922598Y-1197305D03*
G01*
X3922598Y-1317320D03*
G01*
X3922598Y-1437309D03*
G01*
X3922598Y-1557324D03*
G01*
X3922598Y-1677314D03*
G01*
X3922598Y-1797329D03*
G01*
X3922598Y-1917319D03*
G01*
X3922598Y-2037308D03*
D26*
G01*
X3742588Y-2177313D03*
G01*
X3622598Y-2177313D03*
G01*
X3502609Y-2177313D03*
G01*
X3382594Y-2177313D03*
G01*
X3262604Y-2177313D03*
G01*
X3142589Y-2177313D03*
G01*
X3022600Y-2177313D03*
G01*
X2902584Y-2177313D03*
G01*
X2782595Y-2177313D03*
G01*
X2662605Y-2177313D03*
G01*
X2542590Y-2177313D03*
G01*
X2422601Y-2177313D03*
G01*
X2302586Y-2177313D03*
D27*
G01*
X2122601Y-477316D03*
G01*
X2122601Y-597306D03*
G01*
X2122601Y-717321D03*
G01*
X2122601Y-837311D03*
G01*
X2122601Y-957326D03*
G01*
X2122601Y-1077315D03*
G01*
X2122601Y-1197305D03*
G01*
X2122601Y-1317320D03*
G01*
X2122601Y-1437309D03*
G01*
X2122601Y-1557324D03*
G01*
X2122601Y-1677314D03*
G01*
X2122601Y-1797329D03*
G01*
X2122601Y-1917319D03*
G01*
X2122601Y-2037308D03*
D28*
G01*
X2602585Y-787323D03*
D29*
G01*
X2832608Y-1447317D03*
D30*
G01*
X3910304Y-4216907D03*
G01*
X3910304Y-4089907D03*
G01*
X3910304Y-3962907D03*
G01*
X3910304Y-3835907D03*
G01*
X3910304Y-3708907D03*
G01*
X3910304Y-3581907D03*
G01*
X3910304Y-3454907D03*
G01*
X3910304Y-3327907D03*
G01*
X3910304Y-3200907D03*
G01*
X3910304Y-3073907D03*
G01*
X3910304Y-2946907D03*
G01*
X3910304Y-2819907D03*
G01*
X3910304Y-2692907D03*
G01*
X3910304Y-2565907D03*
D31*
G01*
X3733800Y-2437892D03*
G01*
X3606800Y-2437892D03*
G01*
X3479800Y-2437892D03*
G01*
X3352800Y-2437892D03*
G01*
X3225800Y-2437892D03*
G01*
X3098800Y-2437892D03*
G01*
X2971800Y-2437892D03*
G01*
X2844800Y-2437892D03*
G01*
X2717800Y-2437892D03*
G01*
X2590800Y-2437892D03*
G01*
X2463800Y-2437892D03*
G01*
X2336800Y-2440889D03*
D30*
G01*
X2160295Y-2565907D03*
G01*
X2160295Y-2692907D03*
G01*
X2160295Y-2819907D03*
G01*
X2160295Y-2946907D03*
G01*
X2160295Y-3073907D03*
G01*
X2160295Y-3200907D03*
G01*
X2160295Y-3327907D03*
G01*
X2160295Y-3454907D03*
G01*
X2160295Y-3581907D03*
G01*
X2160295Y-3708907D03*
G01*
X2160295Y-3835907D03*
G01*
X2160295Y-3962907D03*
G01*
X2160295Y-4089907D03*
G01*
X2160295Y-4216907D03*
D32*
G01*
X3045307Y-3304895D03*
G01*
X3185312Y-3304870D03*
G01*
X3325317Y-3304895D03*
G01*
X3325317Y-3584879D03*
G01*
X3185312Y-3584879D03*
G01*
X3045307Y-3584879D03*
G01*
X3045307Y-3444875D03*
G01*
X3325317Y-3444875D03*
G01*
X3185312Y-3444875D03*
D33*
G01*
X1879600Y-314502D03*
G01*
X1752600Y-314502D03*
G01*
X1625600Y-314502D03*
G01*
X1498600Y-314502D03*
G01*
X1879600Y-828497D03*
G01*
X1752600Y-828497D03*
G01*
X1625600Y-828497D03*
G01*
X1498600Y-828497D03*
D34*
G01*
X5257749Y-25400D03*
D35*
G01*
X5410250Y-172897D03*
G01*
X5410250Y122097D03*
D34*
G01*
X5245049Y2374900D03*
D35*
G01*
X5397550Y2227402D03*
G01*
X5397550Y2522397D03*
M02*
