G04 Layer: BottomPasteMaskLayer*
G04 EasyEDA v6.5.54, 2026-02-06 19:08:49*
G04 4cf94d710e704693a343972755933389,ab8ce68afc924fbca291fda1b5b5a17a,10*
G04 Gerber Generator version 0.2*
G04 Scale: 100 percent, Rotated: No, Reflected: No *
G04 Dimensions in millimeters *
G04 leading zeros omitted , absolute positions ,4 integer and 5 decimal *
%FSLAX45Y45*%
%MOMM*%

%AMMACRO1*21,1,$1,$2,0,0,$3*%
%ADD10MACRO1,0.9X1.34X-90.0000*%
%ADD11MACRO1,1.35X2.61X-90.0000*%
%ADD12MACRO1,0.7X1.6X90.0000*%
%ADD13MACRO1,1.2X1.5X90.0000*%
%ADD14MACRO1,1.2X2.2X90.0000*%
%ADD15MACRO1,1.6X1.5X90.0000*%
%ADD16MACRO1,0.8X0.9X0.0000*%
%ADD17C,0.0103*%

%LPD*%
G36*
X2611018Y-1034491D02*
G01*
X2605989Y-1039520D01*
X2605989Y-1119479D01*
X2611018Y-1124508D01*
X2690977Y-1124508D01*
X2696006Y-1119479D01*
X2696006Y-1095298D01*
X2659024Y-1095298D01*
X2659024Y-1062278D01*
X2696006Y-1062278D01*
X2696006Y-1039520D01*
X2690977Y-1034491D01*
G37*
G36*
X2770022Y-1034491D02*
G01*
X2764993Y-1039520D01*
X2764993Y-1063701D01*
X2801975Y-1063701D01*
X2801975Y-1096721D01*
X2764993Y-1096721D01*
X2764993Y-1119479D01*
X2770022Y-1124508D01*
X2849981Y-1124508D01*
X2855010Y-1119479D01*
X2855010Y-1039520D01*
X2849981Y-1034491D01*
G37*
G36*
X2611018Y-856691D02*
G01*
X2605989Y-861720D01*
X2605989Y-941679D01*
X2611018Y-946708D01*
X2690977Y-946708D01*
X2696006Y-941679D01*
X2696006Y-917498D01*
X2659024Y-917498D01*
X2659024Y-884478D01*
X2696006Y-884478D01*
X2696006Y-861720D01*
X2690977Y-856691D01*
G37*
G36*
X2770022Y-856691D02*
G01*
X2764993Y-861720D01*
X2764993Y-885901D01*
X2801975Y-885901D01*
X2801975Y-918921D01*
X2764993Y-918921D01*
X2764993Y-941679D01*
X2770022Y-946708D01*
X2849981Y-946708D01*
X2855010Y-941679D01*
X2855010Y-861720D01*
X2849981Y-856691D01*
G37*
G36*
X2627020Y-1221689D02*
G01*
X2621991Y-1226718D01*
X2621991Y-1306677D01*
X2627020Y-1311706D01*
X2651201Y-1311706D01*
X2651201Y-1274673D01*
X2684221Y-1274673D01*
X2684221Y-1311706D01*
X2706979Y-1311706D01*
X2712008Y-1306677D01*
X2712008Y-1226718D01*
X2706979Y-1221689D01*
G37*
G36*
X2627020Y-1380693D02*
G01*
X2621991Y-1385722D01*
X2621991Y-1465681D01*
X2627020Y-1470710D01*
X2706979Y-1470710D01*
X2712008Y-1465681D01*
X2712008Y-1385722D01*
X2706979Y-1380693D01*
X2682798Y-1380693D01*
X2682798Y-1417726D01*
X2649778Y-1417726D01*
X2649778Y-1380693D01*
G37*
G36*
X2757322Y-1707591D02*
G01*
X2752293Y-1712620D01*
X2752293Y-1736801D01*
X2789275Y-1736801D01*
X2789275Y-1769821D01*
X2752293Y-1769821D01*
X2752293Y-1792579D01*
X2757322Y-1797608D01*
X2837281Y-1797608D01*
X2842310Y-1792579D01*
X2842310Y-1712620D01*
X2837281Y-1707591D01*
G37*
G36*
X2598318Y-1707591D02*
G01*
X2593289Y-1712620D01*
X2593289Y-1792579D01*
X2598318Y-1797608D01*
X2678277Y-1797608D01*
X2683306Y-1792579D01*
X2683306Y-1768398D01*
X2646324Y-1768398D01*
X2646324Y-1735378D01*
X2683306Y-1735378D01*
X2683306Y-1712620D01*
X2678277Y-1707591D01*
G37*
D10*
G01*
X3461143Y-483591D03*
G01*
X3461143Y-737591D03*
G01*
X3461143Y-991591D03*
G01*
X3461143Y-356591D03*
G01*
X3461143Y-610591D03*
G01*
X3461143Y-864591D03*
D11*
G01*
X3711638Y-192601D03*
G01*
X4971656Y-192601D03*
G01*
X3711613Y-1788598D03*
G01*
X4971605Y-1788598D03*
D12*
G01*
X2447696Y-1738807D03*
G01*
X2447696Y-1628805D03*
G01*
X2447696Y-1518805D03*
G01*
X2447696Y-1408805D03*
G01*
X2447696Y-1298806D03*
G01*
X2447696Y-1188806D03*
G01*
X2447696Y-1078806D03*
G01*
X2447696Y-968806D03*
G01*
X2447698Y-1848810D03*
D13*
G01*
X2347691Y-1973806D03*
D14*
G01*
X1387701Y-1973806D03*
G01*
X1387698Y-413801D03*
D15*
G01*
X2347701Y-508800D03*
D16*
G01*
X2647800Y-1955800D03*
G01*
X2787799Y-1955800D03*
M02*
