G04 Layer: BottomLayer*
G04 EasyEDA v6.5.54, 2026-02-06 19:08:49*
G04 4cf94d710e704693a343972755933389,ab8ce68afc924fbca291fda1b5b5a17a,10*
G04 Gerber Generator version 0.2*
G04 Scale: 100 percent, Rotated: No, Reflected: No *
G04 Dimensions in millimeters *
G04 leading zeros omitted , absolute positions ,4 integer and 5 decimal *
%FSLAX45Y45*%
%MOMM*%

%AMMACRO1*21,1,$1,$2,0,0,$3*%
%ADD10C,0.2540*%
%ADD11C,0.4000*%
%ADD12C,0.6000*%
%ADD13C,0.5000*%
%ADD14MACRO1,0.9X1.34X-90.0000*%
%ADD15C,0.0117*%
%ADD16MACRO1,1.35X2.61X-90.0000*%
%ADD17MACRO1,0.7X1.6X90.0000*%
%ADD18MACRO1,1.2X1.5X90.0000*%
%ADD19MACRO1,1.2X2.2X90.0000*%
%ADD20MACRO1,1.6X1.5X90.0000*%
%ADD21MACRO1,0.8X0.9X0.0000*%
%ADD22MACRO1,0.864X0.8065X90.0000*%
%ADD23R,0.8640X0.8065*%
%ADD24MACRO1,0.864X0.8065X0.0000*%
%ADD25MACRO1,0.864X0.8065X-90.0000*%
%ADD26R,1.4000X1.5240*%
%ADD27C,1.4000*%
%ADD28C,1.8000*%
%ADD29R,1.8000X1.8000*%
%ADD30O,0.999998X1.999996*%
%ADD31O,0.999998X1.799996*%
%ADD32C,1.6000*%
%ADD33R,1.6000X1.6000*%
%ADD34R,1.8000X1.5748*%
%ADD35C,0.6100*%
%ADD36C,0.8000*%
%ADD37C,0.6200*%

%LPD*%
D10*
X3556050Y-737590D02*
G01*
X3687902Y-605739D01*
X3687902Y-508914D01*
X3461131Y-737590D02*
G01*
X3556050Y-737590D01*
X3556050Y-991590D02*
G01*
X3591128Y-991590D01*
X3710838Y-871880D01*
X3710838Y-690778D01*
X3700195Y-680135D01*
X3461131Y-991590D02*
G01*
X3556050Y-991590D01*
X1525625Y-1973808D02*
G01*
X1546479Y-1952955D01*
X1674571Y-1952955D01*
X1387703Y-1973808D02*
G01*
X1525625Y-1973808D01*
X2244775Y-508812D02*
G01*
X2212441Y-541146D01*
X2212441Y-1838553D01*
X2347696Y-1973808D01*
X4189526Y-3831691D02*
G01*
X4157395Y-3831691D01*
X3737178Y-3411473D01*
X3706291Y-3411473D01*
X2356535Y-2061718D01*
X2347696Y-2061718D01*
X2647797Y-2028723D02*
G01*
X2647797Y-2052904D01*
X4481093Y-3886200D01*
X5085435Y-3886200D01*
X5384800Y-4185564D01*
X5384800Y-4229100D01*
X5384800Y-4229100D02*
G01*
X5232044Y-4381855D01*
X4739690Y-4381855D01*
X4189526Y-3831691D01*
X2647797Y-1955800D02*
G01*
X2647797Y-2028723D01*
X1957806Y-413791D02*
G01*
X2149754Y-413791D01*
X2244775Y-508812D01*
X1525625Y-413791D02*
G01*
X1957806Y-413791D01*
X1957806Y-413791D02*
G01*
X1957806Y-372033D01*
X3461131Y-356590D02*
G01*
X3461131Y-283667D01*
X3461131Y-283667D02*
G01*
X3355086Y-283667D01*
X3262604Y-191185D01*
X2347696Y-1973808D02*
G01*
X2347696Y-2061718D01*
X1387703Y-413791D02*
G01*
X1525625Y-413791D01*
X2296236Y-508812D02*
G01*
X2448458Y-356590D01*
X3461131Y-356590D01*
X2296236Y-508812D02*
G01*
X2244775Y-508812D01*
X2347696Y-508812D02*
G01*
X2296236Y-508812D01*
X3461131Y-864590D02*
G01*
X3628567Y-864590D01*
X3631920Y-867943D01*
X2979394Y-2554096D02*
G01*
X3045485Y-2554096D01*
X4758588Y-4267200D01*
X5041900Y-4267200D01*
X2979394Y-2554096D02*
G01*
X2971800Y-2561691D01*
X2574241Y-1625600D02*
G01*
X2574241Y-1684378D01*
X2642463Y-1752600D01*
X2642463Y-1698873D01*
X2616608Y-1673019D01*
X2610792Y-1673019D01*
X2574366Y-1709445D01*
X2574366Y-2149066D01*
X2979389Y-2554094D01*
X2642463Y-1752600D02*
G01*
X2642463Y-1693821D01*
X2574241Y-1625600D01*
X2555620Y-1628800D02*
G01*
X2571038Y-1628800D01*
X2574239Y-1625600D01*
X2447696Y-1628800D02*
G01*
X2555620Y-1628800D01*
D11*
X2327656Y-1298803D02*
G01*
X2327656Y-1329715D01*
X2285187Y-1372184D01*
X2684424Y-1288287D02*
G01*
X2667000Y-1270863D01*
X2684424Y-1288287D02*
G01*
X2805836Y-1166876D01*
X2805836Y-1162735D01*
X5384800Y-3975100D02*
G01*
X5255844Y-3846144D01*
X5255818Y-3846144D01*
X5255818Y-3757345D01*
X3539312Y-2040839D01*
X2787802Y-2040839D01*
X1579575Y-619683D02*
G01*
X1279372Y-619683D01*
X1187195Y-527507D01*
X1187195Y-316712D01*
X2734005Y1230096D01*
X3090748Y1230096D01*
X2447696Y-1298803D02*
G01*
X2327656Y-1298803D01*
X2805836Y-1079500D02*
G01*
X2805836Y-901700D01*
X2507716Y-1298803D02*
G01*
X2447696Y-1298803D01*
X2507716Y-1298803D02*
G01*
X2567736Y-1298803D01*
X2787802Y-1878761D02*
G01*
X2787802Y-1955800D01*
X2787802Y-1878761D02*
G01*
X2787802Y-1870760D01*
X2787802Y-1955800D02*
G01*
X2787802Y-2040839D01*
X2805836Y-1079500D02*
G01*
X2805836Y-1162735D01*
X2667000Y-1270863D02*
G01*
X2583764Y-1270863D01*
X2583764Y-1270863D02*
G01*
X2583764Y-1282776D01*
X2567736Y-1298803D01*
D10*
X2723413Y-901700D02*
G01*
X2727299Y-905586D01*
X2727299Y-1145641D01*
X2696540Y-1176401D01*
X2696540Y-1176401D02*
G01*
X2568016Y-1176401D01*
X2555620Y-1188796D01*
X5041900Y-3759200D02*
G01*
X4436922Y-3759200D01*
X3246653Y-2568930D01*
X2655163Y-901700D02*
G01*
X2723413Y-901700D01*
X2447696Y-1188796D02*
G01*
X2555620Y-1188796D01*
X2307209Y-1074064D02*
G01*
X2335022Y-1074064D01*
X2339771Y-1078814D01*
X2447696Y-1078814D02*
G01*
X2339771Y-1078814D01*
X2655163Y-1079500D02*
G01*
X2586939Y-1079500D01*
X2586939Y-1079500D02*
G01*
X2586253Y-1078814D01*
X2555620Y-1078814D01*
X2447696Y-1078814D02*
G01*
X2555620Y-1078814D01*
D12*
X5384800Y-2451100D02*
G01*
X4757750Y-2451100D01*
X4494402Y-2714447D01*
X2557754Y1258214D02*
G01*
X1769694Y1258214D01*
X1313408Y1714500D01*
X2557754Y1185570D02*
G01*
X2557754Y1258214D01*
X1168400Y1714500D02*
G01*
X1313408Y1714500D01*
D10*
X2273681Y1466469D02*
G01*
X2986100Y2178888D01*
X2986100Y3631209D01*
X2986125Y3631209D01*
X1793265Y-3644519D02*
G01*
X1850491Y-3587292D01*
X1850491Y-2460345D01*
X1885365Y-2336749D02*
G01*
X1512747Y-2709367D01*
X1512747Y-3639235D01*
X5384800Y-1689100D02*
G01*
X4563973Y-2509926D01*
X4263847Y-2509926D01*
X5384800Y-927100D02*
G01*
X5244007Y-1067892D01*
X5244007Y-1422679D01*
X1003300Y-1676400D02*
G01*
X1206245Y-1879345D01*
X1985695Y-1879345D01*
X2422829Y-2316479D01*
X2470581Y-2316479D01*
X2463800Y-2558872D02*
G01*
X2183104Y-2278176D01*
X1861108Y-2278176D01*
X1844547Y-2294737D01*
X937209Y-2294737D01*
X886053Y-2243581D01*
X886053Y-2047646D01*
X1003300Y-1930400D01*
X1003300Y-3708400D02*
G01*
X1929866Y-3708400D01*
X2037232Y-3815765D01*
X1003300Y-3962400D02*
G01*
X2035530Y-3962400D01*
X2036038Y-3962907D01*
X1003300Y-4216400D02*
G01*
X1111224Y-4216400D01*
X1111224Y-4216400D02*
G01*
X1241780Y-4085844D01*
X2036445Y-4085844D01*
X1752600Y-475411D02*
G01*
X1683004Y-545007D01*
X1304366Y-545007D01*
X1242136Y-482777D01*
X1242136Y-349300D01*
X1459052Y-132384D01*
X3402329Y-132384D01*
X3771645Y-501700D01*
X3771645Y-890473D01*
X3550107Y-1112012D01*
X3550107Y-1880057D01*
X4629150Y-2959100D01*
X5384800Y-2959100D01*
X2667000Y-1421536D02*
G01*
X2568346Y-1421536D01*
X2555620Y-1408811D01*
X2447696Y-1408811D02*
G01*
X2555620Y-1408811D01*
X4971618Y-1788591D02*
G01*
X3711625Y-1788591D01*
X4971668Y-192608D02*
G01*
X3711651Y-192608D01*
X5050866Y-192608D02*
G01*
X4971668Y-192608D01*
X5050866Y-192608D02*
G01*
X5130063Y-192608D01*
X4971618Y-1788591D02*
G01*
X5130012Y-1788591D01*
X5130012Y-1788591D02*
G01*
X5130063Y-1788540D01*
X5130063Y-192608D01*
X1943049Y-947775D02*
G01*
X1943049Y-1752930D01*
X2447823Y-2257704D01*
X2494661Y-2257704D01*
X2532329Y-2295372D01*
X2532329Y-2598064D01*
X2283917Y-2846476D01*
X3605707Y-583590D02*
G01*
X3556050Y-533933D01*
X3556050Y-483590D01*
X3461131Y-483590D02*
G01*
X3556050Y-483590D01*
X4200880Y-2802178D02*
G01*
X4200880Y-3201187D01*
X4081297Y-3320770D01*
X5384800Y-3213100D02*
G01*
X4811496Y-3213100D01*
X2934081Y-1335684D01*
X2934081Y-893902D01*
X2855772Y-815594D01*
X2446197Y-815594D01*
X2274468Y-987323D01*
D11*
X2787799Y-1870763D02*
G01*
X2787799Y-1752600D01*
X2793136Y-1752600D01*
X2793136Y-1752600D02*
G01*
X2908300Y-1752600D01*
X2908300Y-1512062D01*
X2684523Y-1288287D01*
D13*
X2667000Y-1421538D02*
G01*
X2667000Y-1562100D01*
X2705100Y-1600200D01*
D12*
X2557754Y1258214D02*
G01*
X2630398Y1330858D01*
X3732555Y1330858D01*
X5529783Y-466369D01*
X5529783Y-2306116D01*
X5384800Y-2451100D01*
D14*
G01*
X3461143Y-483591D03*
G01*
X3461143Y-737591D03*
G01*
X3461143Y-991591D03*
G01*
X3461143Y-356591D03*
G01*
X3461143Y-610591D03*
G01*
X3461143Y-864591D03*
D16*
G01*
X3711638Y-192601D03*
G01*
X4971656Y-192601D03*
G01*
X3711613Y-1788598D03*
G01*
X4971605Y-1788598D03*
D17*
G01*
X2447696Y-1738807D03*
G01*
X2447696Y-1628805D03*
G01*
X2447696Y-1518805D03*
G01*
X2447696Y-1408805D03*
G01*
X2447696Y-1298806D03*
G01*
X2447696Y-1188806D03*
G01*
X2447696Y-1078806D03*
G01*
X2447696Y-968806D03*
G01*
X2447698Y-1848810D03*
D18*
G01*
X2347691Y-1973806D03*
D19*
G01*
X1387701Y-1973806D03*
G01*
X1387698Y-413801D03*
D20*
G01*
X2347701Y-508800D03*
D21*
G01*
X2647800Y-1955800D03*
G01*
X2787799Y-1955800D03*
D22*
G01*
X2655175Y-1079500D03*
G01*
X2805824Y-1079500D03*
G01*
X2655175Y-901700D03*
G01*
X2805824Y-901700D03*
D23*
G01*
X2667000Y-1270863D03*
D24*
G01*
X2667000Y-1421524D03*
D25*
G01*
X2793124Y-1752600D03*
G01*
X2642475Y-1752600D03*
D26*
G01*
X1333423Y2551099D03*
D27*
G01*
X1333423Y2351100D03*
D28*
G01*
X1168400Y1968500D03*
D29*
G01*
X1168400Y1714500D03*
D30*
G01*
X2883154Y3106978D03*
G01*
X2019147Y3106953D03*
D31*
G01*
X2019147Y3526967D03*
G01*
X2883154Y3526967D03*
D32*
G01*
X4823993Y3365500D03*
G01*
X4574006Y3365500D03*
D33*
G01*
X5384800Y-673100D03*
D32*
G01*
X5384800Y-927100D03*
G01*
X5384800Y-1181100D03*
G01*
X5384800Y-1435100D03*
G01*
X5384800Y-1689100D03*
G01*
X5384800Y-1943100D03*
G01*
X5384800Y-2197100D03*
G01*
X5384800Y-2451100D03*
G01*
X5384800Y-2705100D03*
G01*
X5384800Y-2959100D03*
G01*
X5384800Y-3213100D03*
G01*
X5384800Y-3467100D03*
G01*
X5384800Y-3721100D03*
G01*
X5384800Y-3975100D03*
G01*
X5384800Y-4229100D03*
D33*
G01*
X1003300Y-4216400D03*
D32*
G01*
X1003300Y-3962400D03*
G01*
X1003300Y-3708400D03*
G01*
X1003300Y-3454400D03*
G01*
X1003300Y-3200400D03*
G01*
X1003300Y-2946400D03*
G01*
X1003300Y-2692400D03*
G01*
X1003300Y-2438400D03*
G01*
X1003300Y-2184400D03*
G01*
X1003300Y-1930400D03*
G01*
X1003300Y-1676400D03*
G01*
X1003300Y-1422400D03*
G01*
X1003300Y-1168400D03*
G01*
X1003300Y-914400D03*
G01*
X1003300Y-660400D03*
D28*
G01*
X5041900Y-3759200D03*
G01*
X5041900Y-4013200D03*
D34*
G01*
X5041900Y-4267200D03*
D28*
G01*
X1409700Y-4279900D03*
D29*
G01*
X1663700Y-4279900D03*
D35*
G01*
X3687902Y-508914D03*
G01*
X3700195Y-680135D03*
G01*
X1674571Y-1952955D03*
G01*
X1957806Y-372033D03*
G01*
X3262604Y-191185D03*
G01*
X4189526Y-3831691D03*
G01*
X3631920Y-867943D03*
G01*
X2971800Y-2561691D03*
D36*
G01*
X3090748Y1230096D03*
G01*
X2285187Y-1372184D03*
G01*
X1579575Y-619683D03*
D35*
G01*
X2696540Y-1176401D03*
G01*
X3246653Y-2568930D03*
G01*
X2307209Y-1074064D03*
G01*
X2895600Y-2819400D03*
D36*
G01*
X4494402Y-2714447D03*
G01*
X2557754Y1185570D03*
G01*
X1702663Y-1386103D03*
D35*
G01*
X1113510Y3580129D03*
G01*
X3746500Y-3898900D03*
G01*
X2986125Y3631209D03*
G01*
X2273681Y1466469D03*
G01*
X2368600Y-807745D03*
G01*
X4349089Y523620D03*
G01*
X4189679Y-52070D03*
G01*
X4463897Y2491460D03*
G01*
X1793265Y-3644519D03*
G01*
X1850491Y-2460345D03*
G01*
X1512747Y-3639235D03*
G01*
X1885365Y-2336749D03*
G01*
X4297451Y-3107715D03*
G01*
X2285365Y-1572539D03*
G01*
X4032656Y-3816477D03*
G01*
X4263847Y-2509926D03*
G01*
X3758412Y-3349853D03*
G01*
X4073880Y-2690393D03*
G01*
X5244007Y-1422679D03*
G01*
X3736466Y-2579370D03*
G01*
X3198063Y-2308860D03*
G01*
X3529101Y-2601874D03*
G01*
X2552700Y-2857500D03*
G01*
X2470581Y-2316479D03*
G01*
X2463800Y-2558872D03*
G01*
X2328418Y-2564028D03*
G01*
X2037232Y-3815765D03*
G01*
X2036038Y-3962907D03*
G01*
X2036445Y-4085844D03*
G01*
X1752600Y-475411D03*
G01*
X2283917Y-2846476D03*
G01*
X1943049Y-947775D03*
G01*
X4614900Y2307209D03*
G01*
X4063644Y-794232D03*
G01*
X3605707Y-583590D03*
G01*
X3652265Y-740257D03*
G01*
X4222622Y-2286609D03*
G01*
X3132200Y-1876018D03*
G01*
X2470505Y-546150D03*
G01*
X3482593Y-3078353D03*
G01*
X4054703Y-3646170D03*
G01*
X4081297Y-3320770D03*
G01*
X4200880Y-2802178D03*
G01*
X1602460Y-473582D03*
G01*
X2274468Y-987323D03*
D37*
G01*
X2032000Y-2832100D03*
G01*
X2413000Y-2882900D03*
G01*
X2768600Y-2628900D03*
G01*
X2082800Y-2463800D03*
G01*
X4076700Y-2032000D03*
G01*
X5168900Y2235200D03*
G01*
X3073400Y-2667000D03*
G01*
X2705100Y-1600200D03*
G01*
X2451100Y2832100D03*
G01*
X4318000Y-1524000D03*
G01*
X2376144Y2640355D03*
G01*
X4521200Y-1689100D03*
M02*
