G04 Layer: BottomSilkscreenLayer*
G04 EasyEDA v6.5.54, 2026-02-06 19:08:49*
G04 4cf94d710e704693a343972755933389,ab8ce68afc924fbca291fda1b5b5a17a,10*
G04 Gerber Generator version 0.2*
G04 Scale: 100 percent, Rotated: No, Reflected: No *
G04 Dimensions in millimeters *
G04 leading zeros omitted , absolute positions ,4 integer and 5 decimal *
%FSLAX45Y45*%
%MOMM*%

%ADD10C,0.1524*%
%ADD11C,0.2540*%
%ADD12C,0.0132*%

%LPD*%
D10*
X3268535Y-1068578D02*
G01*
X3258121Y-1063244D01*
X3247707Y-1052829D01*
X3242627Y-1042670D01*
X3242627Y-1021842D01*
X3247707Y-1011428D01*
X3258121Y-1001013D01*
X3268535Y-995679D01*
X3284283Y-990600D01*
X3310191Y-990600D01*
X3325685Y-995679D01*
X3336099Y-1001013D01*
X3346513Y-1011428D01*
X3351593Y-1021842D01*
X3351593Y-1042670D01*
X3346513Y-1052829D01*
X3336099Y-1063244D01*
X3325685Y-1068578D01*
X3242627Y-1144270D02*
G01*
X3351593Y-1102868D01*
X3242627Y-1144270D02*
G01*
X3351593Y-1185926D01*
X3315271Y-1118362D02*
G01*
X3315271Y-1170431D01*
X3242627Y-1220215D02*
G01*
X3351593Y-1220215D01*
X3242627Y-1220215D02*
G01*
X3242627Y-1266952D01*
X3247707Y-1282700D01*
X3253041Y-1287779D01*
X3263455Y-1292860D01*
X3273869Y-1292860D01*
X3284283Y-1287779D01*
X3289363Y-1282700D01*
X3294443Y-1266952D01*
X3294443Y-1220215D01*
X3294443Y-1256537D02*
G01*
X3351593Y-1292860D01*
X3242627Y-1327150D02*
G01*
X3351593Y-1327150D01*
X3242627Y-1327150D02*
G01*
X3242627Y-1363726D01*
X3247707Y-1379220D01*
X3258121Y-1389634D01*
X3268535Y-1394713D01*
X3284283Y-1400047D01*
X3310191Y-1400047D01*
X3325685Y-1394713D01*
X3336099Y-1389634D01*
X3346513Y-1379220D01*
X3351593Y-1363726D01*
X3351593Y-1327150D01*
X3263455Y-1434337D02*
G01*
X3258121Y-1444752D01*
X3242627Y-1460245D01*
X3351593Y-1460245D01*
X2617215Y-624090D02*
G01*
X2508250Y-624090D01*
X2617215Y-660412D02*
G01*
X2617215Y-587768D01*
X2617215Y-553478D02*
G01*
X2508250Y-553478D01*
X2617215Y-553478D02*
G01*
X2617215Y-485914D01*
X2565400Y-553478D02*
G01*
X2565400Y-511822D01*
X2596388Y-451624D02*
G01*
X2601722Y-441210D01*
X2617215Y-425462D01*
X2508250Y-425462D01*
X2754122Y-2107692D02*
G01*
X2759456Y-2097278D01*
X2769870Y-2086863D01*
X2780029Y-2081784D01*
X2800858Y-2081784D01*
X2811272Y-2086863D01*
X2821686Y-2097278D01*
X2827020Y-2107692D01*
X2832100Y-2123439D01*
X2832100Y-2149347D01*
X2827020Y-2164842D01*
X2821686Y-2175255D01*
X2811272Y-2185670D01*
X2800858Y-2190750D01*
X2780029Y-2190750D01*
X2769870Y-2185670D01*
X2759456Y-2175255D01*
X2754122Y-2164842D01*
X2719831Y-2102612D02*
G01*
X2709418Y-2097278D01*
X2693924Y-2081784D01*
X2693924Y-2190750D01*
X2597150Y-2081784D02*
G01*
X2649220Y-2081784D01*
X2654300Y-2128520D01*
X2649220Y-2123439D01*
X2633725Y-2118105D01*
X2617977Y-2118105D01*
X2602484Y-2123439D01*
X2592070Y-2133600D01*
X2586990Y-2149347D01*
X2586990Y-2159762D01*
X2592070Y-2175255D01*
X2602484Y-2185670D01*
X2617977Y-2190750D01*
X2633725Y-2190750D01*
X2649220Y-2185670D01*
X2654300Y-2180589D01*
X2659634Y-2170176D01*
X3020568Y-1176781D02*
G01*
X2911602Y-1176781D01*
X3020568Y-1176781D02*
G01*
X3020568Y-1130045D01*
X3015488Y-1114552D01*
X3010154Y-1109218D01*
X2999740Y-1104137D01*
X2989325Y-1104137D01*
X2978911Y-1109218D01*
X2973831Y-1114552D01*
X2968752Y-1130045D01*
X2968752Y-1176781D01*
X2968752Y-1140460D02*
G01*
X2911602Y-1104137D01*
X2999740Y-1069847D02*
G01*
X3005074Y-1059434D01*
X3020568Y-1043686D01*
X2911602Y-1043686D01*
X3020568Y-936752D02*
G01*
X2911602Y-988821D01*
X3020568Y-1009395D02*
G01*
X3020568Y-936752D01*
X2857500Y-684784D02*
G01*
X2857500Y-793750D01*
X2857500Y-684784D02*
G01*
X2810763Y-684784D01*
X2795270Y-689863D01*
X2789936Y-695197D01*
X2784856Y-705612D01*
X2784856Y-716026D01*
X2789936Y-726439D01*
X2795270Y-731520D01*
X2810763Y-736600D01*
X2857500Y-736600D01*
X2821177Y-736600D02*
G01*
X2784856Y-793750D01*
X2750565Y-705612D02*
G01*
X2740152Y-700278D01*
X2724404Y-684784D01*
X2724404Y-793750D01*
X2664206Y-684784D02*
G01*
X2679700Y-689863D01*
X2685034Y-700278D01*
X2685034Y-710692D01*
X2679700Y-721105D01*
X2669540Y-726439D01*
X2648711Y-731520D01*
X2632963Y-736600D01*
X2622550Y-747013D01*
X2617470Y-757428D01*
X2617470Y-773176D01*
X2622550Y-783589D01*
X2627884Y-788670D01*
X2643377Y-793750D01*
X2664206Y-793750D01*
X2679700Y-788670D01*
X2685034Y-783589D01*
X2690113Y-773176D01*
X2690113Y-757428D01*
X2685034Y-747013D01*
X2674620Y-736600D01*
X2659125Y-731520D01*
X2638297Y-726439D01*
X2627884Y-721105D01*
X2622550Y-710692D01*
X2622550Y-700278D01*
X2627884Y-689863D01*
X2643377Y-684784D01*
X2664206Y-684784D01*
X2883915Y-1485900D02*
G01*
X2774950Y-1485900D01*
X2883915Y-1485900D02*
G01*
X2883915Y-1439163D01*
X2878836Y-1423670D01*
X2873502Y-1418336D01*
X2863088Y-1413255D01*
X2852674Y-1413255D01*
X2842259Y-1418336D01*
X2837179Y-1423670D01*
X2832100Y-1439163D01*
X2832100Y-1485900D01*
X2832100Y-1449578D02*
G01*
X2774950Y-1413255D01*
X2858008Y-1373631D02*
G01*
X2863088Y-1373631D01*
X2873502Y-1368552D01*
X2878836Y-1363218D01*
X2883915Y-1352804D01*
X2883915Y-1332229D01*
X2878836Y-1321815D01*
X2873502Y-1316481D01*
X2863088Y-1311402D01*
X2852674Y-1311402D01*
X2842259Y-1316481D01*
X2826765Y-1326895D01*
X2774950Y-1378965D01*
X2774950Y-1306068D01*
X2883915Y-1240789D02*
G01*
X2878836Y-1256284D01*
X2863088Y-1266697D01*
X2837179Y-1271778D01*
X2821686Y-1271778D01*
X2795524Y-1266697D01*
X2780029Y-1256284D01*
X2774950Y-1240789D01*
X2774950Y-1230376D01*
X2780029Y-1214628D01*
X2795524Y-1204213D01*
X2821686Y-1199134D01*
X2837179Y-1199134D01*
X2863088Y-1204213D01*
X2878836Y-1214628D01*
X2883915Y-1230376D01*
X2883915Y-1240789D01*
X2603500Y-1956815D02*
G01*
X2603500Y-1847850D01*
X2603500Y-1956815D02*
G01*
X2650236Y-1956815D01*
X2665729Y-1951736D01*
X2671063Y-1946402D01*
X2676143Y-1935987D01*
X2676143Y-1925573D01*
X2671063Y-1915160D01*
X2665729Y-1910079D01*
X2650236Y-1905000D01*
X2603500Y-1905000D01*
X2639822Y-1905000D02*
G01*
X2676143Y-1847850D01*
X2710434Y-1935987D02*
G01*
X2720847Y-1941321D01*
X2736595Y-1956815D01*
X2736595Y-1847850D01*
X2838450Y-1920494D02*
G01*
X2833115Y-1905000D01*
X2822702Y-1894586D01*
X2807208Y-1889252D01*
X2801874Y-1889252D01*
X2786379Y-1894586D01*
X2775965Y-1905000D01*
X2770886Y-1920494D01*
X2770886Y-1925573D01*
X2775965Y-1941321D01*
X2786379Y-1951736D01*
X2801874Y-1956815D01*
X2807208Y-1956815D01*
X2822702Y-1951736D01*
X2833115Y-1941321D01*
X2838450Y-1920494D01*
X2838450Y-1894586D01*
X2833115Y-1868423D01*
X2822702Y-1852929D01*
X2807208Y-1847850D01*
X2796793Y-1847850D01*
X2781300Y-1852929D01*
X2775965Y-1863344D01*
D11*
X3424999Y-1730598D02*
G01*
X3424999Y-1282700D01*
X3577399Y-1282700D01*
X3577399Y-281251D01*
X3557998Y-1752600D02*
G01*
X3424999Y-1752600D01*
X3424999Y-1730598D01*
X4817991Y-1752600D02*
G01*
X3865227Y-1752600D01*
X5125270Y-228600D02*
G01*
X5152199Y-228600D01*
X5152199Y-1752600D01*
X5125219Y-1752600D01*
X3865252Y-228600D02*
G01*
X4818042Y-228600D01*
X2447696Y-723597D02*
G01*
X2447696Y-908814D01*
X2445806Y-1951812D02*
G01*
X2448699Y-1951812D01*
X2448699Y-1906925D01*
X1520814Y-1951812D02*
G01*
X2249576Y-1951812D01*
X947696Y-436813D02*
G01*
X934702Y-436813D01*
X934702Y-1938809D01*
X934702Y-1951812D01*
X1254587Y-1951812D01*
X1254584Y-436813D02*
G01*
X947696Y-436813D01*
X2249586Y-436813D02*
G01*
X1520812Y-436813D01*
X2447696Y-723597D02*
G01*
X2447696Y-436813D01*
X2445816Y-436813D01*
X2745818Y-2026757D02*
G01*
X2825816Y-2026757D01*
X2689773Y-2026803D02*
G01*
X2609776Y-2026803D01*
X2745818Y-1884789D02*
G01*
X2825816Y-1884789D01*
X2689773Y-1884837D02*
G01*
X2609776Y-1884837D01*
X2856791Y-1995774D02*
G01*
X2856791Y-1915769D01*
X2578798Y-1915822D02*
G01*
X2578798Y-1995825D01*
D10*
X2687878Y-1145560D02*
G01*
X2591991Y-1145560D01*
X2591991Y-1013439D01*
X2687878Y-1013439D01*
X2773121Y-1145560D02*
G01*
X2869008Y-1145560D01*
X2869008Y-1013439D01*
X2773121Y-1013439D01*
X2687878Y-967760D02*
G01*
X2591991Y-967760D01*
X2591991Y-835639D01*
X2687878Y-835639D01*
X2773121Y-967760D02*
G01*
X2869008Y-967760D01*
X2869008Y-835639D01*
X2773121Y-835639D01*
X2600939Y-1303578D02*
G01*
X2600939Y-1207691D01*
X2733060Y-1207691D01*
X2733060Y-1303578D01*
X2600939Y-1388821D02*
G01*
X2600939Y-1484708D01*
X2733060Y-1484708D01*
X2733060Y-1388821D01*
X2760421Y-1686539D02*
G01*
X2856308Y-1686539D01*
X2856308Y-1818660D01*
X2760421Y-1818660D01*
X2675178Y-1686539D02*
G01*
X2579291Y-1686539D01*
X2579291Y-1818660D01*
X2675178Y-1818660D01*
D11*
G75*
G01*
X2609781Y-1884837D02*
G03*
X2578799Y-1915823I0J-30983D01*
G75*
G01*
X2578799Y-1995820D02*
G03*
X2609781Y-2026803I30982J0D01*
G75*
G01*
X2825811Y-2026757D02*
G03*
X2856791Y-1995775I-3J30982D01*
G75*
G01*
X2856791Y-1915777D02*
G03*
X2825811Y-1884789I-30983J5D01*
M02*
