G04 Layer: TopSolderMaskLayer*
G04 EasyEDA v6.5.54, 2026-02-06 19:08:49*
G04 4cf94d710e704693a343972755933389,ab8ce68afc924fbca291fda1b5b5a17a,10*
G04 Gerber Generator version 0.2*
G04 Scale: 100 percent, Rotated: No, Reflected: No *
G04 Dimensions in millimeters *
G04 leading zeros omitted , absolute positions ,4 integer and 5 decimal *
%FSLAX45Y45*%
%MOMM*%

%AMMACRO1*4,1,8,-0.7207,-0.812,-0.75,-0.7827,-0.75,0.7827,-0.7207,0.812,0.7207,0.812,0.75,0.7827,0.75,-0.7827,0.7207,-0.812,-0.7207,-0.812,0*%
%AMMACRO2*4,1,8,-0.9211,-0.9508,-0.9508,-0.921,-0.9508,0.9211,-0.9211,0.9508,0.921,0.9508,0.9508,0.9211,0.9508,-0.921,0.921,-0.9508,-0.9211,-0.9508,0*%
%AMMACRO3*4,1,8,-0.9211,-0.5508,-0.9508,-0.521,-0.9508,0.5211,-0.9211,0.5508,0.921,0.5508,0.9508,0.5211,0.9508,-0.521,0.921,-0.5508,-0.9211,-0.5508,0*%
%AMMACRO4*4,1,8,-0.2711,-0.6008,-0.3008,-0.571,-0.3008,0.5711,-0.2711,0.6008,0.271,0.6008,0.3008,0.5711,0.3008,-0.571,0.271,-0.6008,-0.2711,-0.6008,0*%
%AMMACRO5*4,1,8,-0.1711,-0.6008,-0.2008,-0.571,-0.2008,0.5711,-0.1711,0.6008,0.171,0.6008,0.2008,0.5711,0.2008,-0.571,0.171,-0.6008,-0.1711,-0.6008,0*%
%AMMACRO6*4,1,8,-0.846,-2.3008,-0.8758,-2.271,-0.8758,2.2711,-0.846,2.3008,0.846,2.3008,0.8758,2.2711,0.8758,-2.271,0.846,-2.3008,-0.846,-2.3008,0*%
%AMMACRO7*4,1,8,-0.7208,-0.701,-0.7506,-0.6713,-0.7506,0.6713,-0.7208,0.701,0.7208,0.701,0.7506,0.6713,0.7506,-0.6713,0.7208,-0.701,-0.7208,-0.701,0*%
%AMMACRO8*4,1,8,-0.6713,-0.7506,-0.701,-0.7208,-0.701,0.7208,-0.6713,0.7506,0.6713,0.7506,0.701,0.7208,0.701,-0.7208,0.6713,-0.7506,-0.6713,-0.7506,0*%
%AMMACRO9*4,1,8,-0.4531,-0.454,-0.4828,-0.4243,-0.4828,0.4243,-0.4531,0.454,0.453,0.454,0.4828,0.4243,0.4828,-0.4243,0.453,-0.454,-0.4531,-0.454,0*%
%AMMACRO10*4,1,8,-0.6211,-0.3508,-0.6508,-0.321,-0.6508,0.3211,-0.6211,0.3508,0.621,0.3508,0.6508,0.3211,0.6508,-0.321,0.621,-0.3508,-0.6211,-0.3508,0*%
%AMMACRO11*4,1,8,-1.2211,-1.7008,-1.2508,-1.671,-1.2508,1.6711,-1.2211,1.7008,1.221,1.7008,1.2508,1.6711,1.2508,-1.671,1.221,-1.7008,-1.2211,-1.7008,0*%
%AMMACRO12*4,1,8,-1.2561,-0.5408,-1.2858,-0.511,-1.2858,0.5111,-1.2561,0.5408,1.256,0.5408,1.2858,0.5111,1.2858,-0.511,1.256,-0.5408,-1.2561,-0.5408,0*%
%AMMACRO13*4,1,8,-1.2561,-0.5408,-1.2858,-0.511,-1.2858,0.511,-1.2561,0.5408,1.256,0.5408,1.2858,0.511,1.2858,-0.511,1.256,-0.5408,-1.2561,-0.5408,0*%
%AMMACRO14*4,1,8,-1.2561,-1.8508,-1.2858,-1.821,-1.2858,1.8211,-1.2561,1.8508,1.256,1.8508,1.2858,1.8211,1.2858,-1.821,1.256,-1.8508,-1.2561,-1.8508,0*%
%AMMACRO15*4,1,8,-0.4243,-0.4828,-0.454,-0.453,-0.454,0.4531,-0.4243,0.4828,0.4243,0.4828,0.454,0.4531,0.454,-0.453,0.4243,-0.4828,-0.4243,-0.4828,0*%
%AMMACRO16*4,1,8,-0.4711,-0.4508,-0.5008,-0.421,-0.5008,0.4211,-0.4711,0.4508,0.471,0.4508,0.5008,0.4211,0.5008,-0.421,0.471,-0.4508,-0.4711,-0.4508,0*%
%AMMACRO17*4,1,8,-0.4211,-0.5008,-0.4508,-0.471,-0.4508,0.4711,-0.4211,0.5008,0.421,0.5008,0.4508,0.4711,0.4508,-0.471,0.421,-0.5008,-0.4211,-0.5008,0*%
%AMMACRO18*4,1,8,-1.6213,-0.8128,-1.651,-0.783,-1.651,0.7831,-1.6213,0.8128,1.6212,0.8128,1.651,0.7831,1.651,-0.783,1.6212,-0.8128,-1.6213,-0.8128,0*%
%AMMACRO19*4,1,8,-0.3171,-0.6016,-0.3766,-0.5421,-0.3766,0.5421,-0.3171,0.6016,0.3171,0.6016,0.3766,0.5421,0.3766,-0.5421,0.3171,-0.6016,-0.3171,-0.6016,0*%
%AMMACRO20*4,1,8,-0.3211,-0.6508,-0.3508,-0.621,-0.3508,0.6211,-0.3211,0.6508,0.321,0.6508,0.3508,0.6211,0.3508,-0.621,0.321,-0.6508,-0.3211,-0.6508,0*%
%AMMACRO21*4,1,8,-1.1211,-2.5008,-1.1508,-2.471,-1.1508,2.4711,-1.1211,2.5008,1.121,2.5008,1.1508,2.4711,1.1508,-2.471,1.121,-2.5008,-1.1211,-2.5008,0*%
%AMMACRO22*4,1,8,-1.5207,-1.55,-1.55,-1.5207,-1.55,1.5207,-1.5207,1.55,1.5207,1.55,1.55,1.5207,1.55,-1.5207,1.5207,-1.55,-1.5207,-1.55,0*%
%AMMACRO23*4,1,8,-0.7707,-0.8,-0.8,-0.7707,-0.8,0.7707,-0.7707,0.8,0.7707,0.8,0.8,0.7707,0.8,-0.7707,0.7707,-0.8,-0.7707,-0.8,0*%
%AMMACRO24*4,1,8,-0.7707,-0.5,-0.8,-0.4707,-0.8,0.4707,-0.7707,0.5,0.7707,0.5,0.8,0.4707,0.8,-0.4707,0.7707,-0.5,-0.7707,-0.5,0*%
%AMMACRO25*4,1,8,-0.4707,-0.8,-0.5,-0.7707,-0.5,0.7707,-0.4707,0.8,0.4707,0.8,0.5,0.7707,0.5,-0.7707,0.4707,-0.8,-0.4707,-0.8,0*%
%AMMACRO26*4,1,8,-0.4711,-0.5008,-0.5008,-0.471,-0.5008,0.4711,-0.4711,0.5008,0.4711,0.5008,0.5008,0.4711,0.5008,-0.471,0.4711,-0.5008,-0.4711,-0.5008,0*%
%AMMACRO27*4,1,8,-0.4711,-0.5008,-0.5008,-0.471,-0.5008,0.4711,-0.4711,0.5008,0.471,0.5008,0.5008,0.4711,0.5008,-0.471,0.471,-0.5008,-0.4711,-0.5008,0*%
%AMMACRO28*4,1,8,-0.4711,-0.5008,-0.5008,-0.4711,-0.5008,0.4711,-0.4711,0.5008,0.4711,0.5008,0.5008,0.4711,0.5008,-0.4711,0.4711,-0.5008,-0.4711,-0.5008,0*%
%AMMACRO29*4,1,8,-0.4711,-0.5008,-0.5008,-0.4711,-0.5008,0.4711,-0.4711,0.5008,0.471,0.5008,0.5008,0.4711,0.5008,-0.4711,0.471,-0.5008,-0.4711,-0.5008,0*%
%AMMACRO30*4,1,8,-0.8207,-0.85,-0.85,-0.8207,-0.85,0.8207,-0.8207,0.85,0.8207,0.85,0.85,0.8207,0.85,-0.8207,0.8207,-0.85,-0.8207,-0.85,0*%
%AMMACRO31*4,1,8,-0.9211,-0.8382,-0.9508,-0.8084,-0.9508,0.8085,-0.9211,0.8382,0.921,0.8382,0.9508,0.8085,0.9508,-0.8084,0.921,-0.8382,-0.9211,-0.8382,0*%
%AMMACRO32*4,1,8,-0.546,-0.5508,-0.5758,-0.521,-0.5758,0.5211,-0.546,0.5508,0.546,0.5508,0.5758,0.5211,0.5758,-0.521,0.546,-0.5508,-0.546,-0.5508,0*%
%AMMACRO33*4,1,8,-1.1211,-0.5758,-1.1508,-0.546,-1.1508,0.546,-1.1211,0.5758,1.121,0.5758,1.1508,0.546,1.1508,-0.546,1.121,-0.5758,-1.1211,-0.5758,0*%
%ADD10MACRO1*%
%ADD11C,1.5000*%
%ADD12C,1.9016*%
%ADD13MACRO2*%
%ADD14MACRO3*%
%ADD15MACRO4*%
%ADD16MACRO5*%
%ADD17O,1.101598X2.101596*%
%ADD18O,0.0163X2.101596*%
%ADD19O,1.101598X1.901596*%
%ADD20MACRO6*%
%ADD21MACRO7*%
%ADD22MACRO8*%
%ADD23MACRO9*%
%ADD24MACRO10*%
%ADD25MACRO11*%
%ADD26MACRO12*%
%ADD27MACRO13*%
%ADD28MACRO14*%
%ADD29MACRO15*%
%ADD30MACRO16*%
%ADD31MACRO17*%
%ADD32MACRO18*%
%ADD33O,1.703197X0.603199*%
%ADD34MACRO19*%
%ADD35MACRO20*%
%ADD36MACRO21*%
%ADD37C,1.7016*%
%ADD38O,0.900024X2.100021*%
%ADD39O,2.100021X0.900024*%
%ADD40MACRO22*%
%ADD41MACRO23*%
%ADD42MACRO24*%
%ADD43MACRO25*%
%ADD44MACRO26*%
%ADD45MACRO27*%
%ADD46MACRO28*%
%ADD47MACRO29*%
%ADD48O,0.68961X2.146605*%
%ADD49MACRO30*%
%ADD50C,1.7000*%
%ADD51MACRO31*%
%ADD52MACRO32*%
%ADD53MACRO33*%

%LPD*%
D10*
G01*
X1333423Y2551099D03*
D11*
G01*
X1333423Y2351100D03*
D12*
G01*
X1168400Y1968500D03*
D13*
G01*
X1168400Y1714500D03*
D14*
G01*
X1817098Y3127865D03*
G01*
X1817098Y3577877D03*
G01*
X977099Y3127865D03*
G01*
X977099Y3577877D03*
G01*
X3963398Y3115165D03*
G01*
X3963398Y3565177D03*
G01*
X3123399Y3115165D03*
G01*
X3123399Y3565177D03*
D15*
G01*
X2131160Y3051938D03*
G01*
X2211144Y3051938D03*
D16*
G01*
X2276143Y3051963D03*
G01*
X2326181Y3051862D03*
G01*
X2376143Y3051963D03*
G01*
X2426155Y3051963D03*
G01*
X2476143Y3051963D03*
G01*
X2526155Y3051963D03*
G01*
X2576142Y3051963D03*
G01*
X2626155Y3051862D03*
D15*
G01*
X2691154Y3051938D03*
G01*
X2771138Y3051938D03*
D17*
G01*
X2883154Y3106978D03*
G01*
X2019147Y3106953D03*
D19*
G01*
X2019147Y3526967D03*
G01*
X2883154Y3526967D03*
D20*
G01*
X1270000Y1021497D03*
G01*
X1270000Y121502D03*
G01*
X2374900Y1034197D03*
G01*
X2374900Y134202D03*
D21*
G01*
X4152900Y2683128D03*
G01*
X4152900Y2473071D03*
D22*
G01*
X3603370Y2679700D03*
G01*
X3813429Y2679700D03*
D23*
G01*
X2590800Y2744075D03*
G01*
X2590800Y2894724D03*
G01*
X2273300Y2744075D03*
G01*
X2273300Y2894724D03*
D24*
G01*
X2414269Y2425700D03*
G01*
X2414269Y2298700D03*
G01*
X2414269Y2171700D03*
G01*
X2414269Y2044700D03*
G01*
X2995930Y2044700D03*
G01*
X2995930Y2171700D03*
G01*
X2995930Y2298700D03*
G01*
X2995930Y2425700D03*
D25*
G01*
X2705100Y2235198D03*
D26*
G01*
X3560099Y1497199D03*
D27*
G01*
X3560099Y1727200D03*
D26*
G01*
X3560099Y1957200D03*
D28*
G01*
X2993100Y1727200D03*
D29*
G01*
X3264775Y2387600D03*
G01*
X3415424Y2387600D03*
G01*
X3936124Y2260600D03*
G01*
X3785475Y2260600D03*
D23*
G01*
X2209800Y2159875D03*
G01*
X2209800Y2310524D03*
G01*
X1803400Y2056524D03*
G01*
X1803400Y1905875D03*
G01*
X1447800Y1715375D03*
G01*
X1447800Y1866024D03*
G01*
X4102100Y11824D03*
G01*
X4102100Y-138824D03*
D30*
G01*
X1625600Y1720700D03*
G01*
X1625600Y1860699D03*
D31*
G01*
X1708000Y2667000D03*
G01*
X1847999Y2667000D03*
D30*
G01*
X3187700Y2571600D03*
G01*
X3187700Y2711599D03*
G01*
X4292600Y6499D03*
G01*
X4292600Y-133499D03*
G01*
X4165600Y374500D03*
G01*
X4165600Y514499D03*
D32*
G01*
X4978400Y6350D03*
G01*
X4978400Y628650D03*
D33*
G01*
X2593340Y1439163D03*
G01*
X2593340Y1504187D03*
G01*
X2593340Y1569212D03*
G01*
X2593340Y1634236D03*
G01*
X1953259Y1439163D03*
G01*
X1953259Y1504187D03*
G01*
X1953259Y1569212D03*
G01*
X1953259Y1634236D03*
D34*
G01*
X1898396Y2209495D03*
G01*
X1803400Y2209495D03*
G01*
X1708403Y2209495D03*
G01*
X1708403Y2489504D03*
G01*
X1803400Y2489504D03*
G01*
X1898396Y2489504D03*
D35*
G01*
X4426198Y574499D03*
G01*
X4521200Y574499D03*
G01*
X4616201Y574499D03*
G01*
X4616201Y314500D03*
G01*
X4521200Y314500D03*
G01*
X4426198Y314500D03*
D36*
G01*
X4079300Y1396998D03*
G01*
X5039299Y1396998D03*
D31*
G01*
X3549500Y1257300D03*
G01*
X3689499Y1257300D03*
G01*
X3333899Y1257300D03*
G01*
X3193900Y1257300D03*
G01*
X4400699Y-3937000D03*
G01*
X4260700Y-3937000D03*
G01*
X4413399Y-4140200D03*
G01*
X4273400Y-4140200D03*
D30*
G01*
X4432300Y-3727599D03*
G01*
X4432300Y-3587600D03*
D31*
G01*
X4209900Y-3403600D03*
G01*
X4349899Y-3403600D03*
G01*
X1847999Y-1524000D03*
G01*
X1708000Y-1524000D03*
G01*
X4794100Y2400300D03*
G01*
X4934099Y2400300D03*
G01*
X4603899Y2400300D03*
G01*
X4463900Y2400300D03*
G01*
X1835299Y-1841500D03*
G01*
X1695300Y-1841500D03*
G01*
X1835299Y-2044700D03*
G01*
X1695300Y-2044700D03*
D37*
G01*
X4823993Y3365500D03*
G01*
X4574006Y3365500D03*
D23*
G01*
X4241800Y-3582275D03*
G01*
X4241800Y-3732924D03*
G01*
X1943100Y-2591675D03*
G01*
X1943100Y-2742324D03*
D29*
G01*
X4406024Y-2197100D03*
G01*
X4255375Y-2197100D03*
G01*
X4317124Y-1727200D03*
G01*
X4166475Y-1727200D03*
G01*
X4102975Y-3200400D03*
G01*
X4253624Y-3200400D03*
G01*
X1702675Y-1181100D03*
G01*
X1853324Y-1181100D03*
G01*
X4444124Y-2603500D03*
G01*
X4293475Y-2603500D03*
G01*
X4393324Y-1346200D03*
G01*
X4242675Y-1346200D03*
D23*
G01*
X1422400Y-3658475D03*
G01*
X1422400Y-3809124D03*
G01*
X1701800Y-3671175D03*
G01*
X1701800Y-3821824D03*
D38*
G01*
X3742588Y-337312D03*
G01*
X3622598Y-337312D03*
G01*
X3502609Y-337312D03*
G01*
X3382594Y-337312D03*
G01*
X3262604Y-337312D03*
G01*
X3142589Y-337312D03*
G01*
X3022600Y-337312D03*
G01*
X2902584Y-337312D03*
G01*
X2782595Y-337312D03*
G01*
X2662605Y-337312D03*
G01*
X2542590Y-337312D03*
G01*
X2422601Y-337312D03*
G01*
X2302586Y-337312D03*
D39*
G01*
X3922598Y-477316D03*
G01*
X3922598Y-597306D03*
G01*
X3922598Y-717321D03*
G01*
X3922598Y-837311D03*
G01*
X3922598Y-957326D03*
G01*
X3922598Y-1077315D03*
G01*
X3922598Y-1197305D03*
G01*
X3922598Y-1317320D03*
G01*
X3922598Y-1437309D03*
G01*
X3922598Y-1557324D03*
G01*
X3922598Y-1677314D03*
G01*
X3922598Y-1797329D03*
G01*
X3922598Y-1917319D03*
G01*
X3922598Y-2037308D03*
D38*
G01*
X3742588Y-2177313D03*
G01*
X3622598Y-2177313D03*
G01*
X3502609Y-2177313D03*
G01*
X3382594Y-2177313D03*
G01*
X3262604Y-2177313D03*
G01*
X3142589Y-2177313D03*
G01*
X3022600Y-2177313D03*
G01*
X2902584Y-2177313D03*
G01*
X2782595Y-2177313D03*
G01*
X2662605Y-2177313D03*
G01*
X2542590Y-2177313D03*
G01*
X2422601Y-2177313D03*
G01*
X2302586Y-2177313D03*
D39*
G01*
X2122601Y-477316D03*
G01*
X2122601Y-597306D03*
G01*
X2122601Y-717321D03*
G01*
X2122601Y-837311D03*
G01*
X2122601Y-957326D03*
G01*
X2122601Y-1077315D03*
G01*
X2122601Y-1197305D03*
G01*
X2122601Y-1317320D03*
G01*
X2122601Y-1437309D03*
G01*
X2122601Y-1557324D03*
G01*
X2122601Y-1677314D03*
G01*
X2122601Y-1797329D03*
G01*
X2122601Y-1917319D03*
G01*
X2122601Y-2037308D03*
D40*
G01*
X2602593Y-787311D03*
D41*
G01*
X2832615Y-1447304D03*
D42*
G01*
X3910300Y-4216895D03*
G01*
X3910299Y-4089895D03*
G01*
X3910299Y-3962895D03*
G01*
X3910299Y-3835895D03*
G01*
X3910299Y-3708895D03*
G01*
X3910299Y-3581895D03*
G01*
X3910299Y-3454895D03*
G01*
X3910299Y-3327895D03*
G01*
X3910299Y-3200895D03*
G01*
X3910299Y-3073895D03*
G01*
X3910299Y-2946895D03*
G01*
X3910299Y-2819895D03*
G01*
X3910299Y-2692895D03*
G01*
X3910299Y-2565895D03*
D43*
G01*
X3733800Y-2437894D03*
G01*
X3606800Y-2437894D03*
G01*
X3479800Y-2437894D03*
G01*
X3352800Y-2437894D03*
G01*
X3225800Y-2437894D03*
G01*
X3098800Y-2437894D03*
G01*
X2971800Y-2437894D03*
G01*
X2844800Y-2437894D03*
G01*
X2717800Y-2437894D03*
G01*
X2590800Y-2437894D03*
G01*
X2463800Y-2437894D03*
G01*
X2336800Y-2440899D03*
D42*
G01*
X2160300Y-2565895D03*
G01*
X2160300Y-2692895D03*
G01*
X2160300Y-2819895D03*
G01*
X2160300Y-2946895D03*
G01*
X2160300Y-3073895D03*
G01*
X2160300Y-3200895D03*
G01*
X2160300Y-3327895D03*
G01*
X2160300Y-3454895D03*
G01*
X2160300Y-3581895D03*
G01*
X2160300Y-3708895D03*
G01*
X2160300Y-3835895D03*
G01*
X2160300Y-3962895D03*
G01*
X2160300Y-4089895D03*
G01*
X2160300Y-4216895D03*
D44*
G01*
X3045310Y-3304885D03*
D45*
G01*
X3185309Y-3304875D03*
G01*
X3325307Y-3304885D03*
G01*
X3325307Y-3584884D03*
G01*
X3185309Y-3584884D03*
D44*
G01*
X3045310Y-3584884D03*
D46*
G01*
X3045310Y-3444885D03*
D47*
G01*
X3325308Y-3444885D03*
G01*
X3185309Y-3444885D03*
D48*
G01*
X1879600Y-314502D03*
G01*
X1752600Y-314502D03*
G01*
X1625600Y-314502D03*
G01*
X1498600Y-314502D03*
G01*
X1879600Y-828497D03*
G01*
X1752600Y-828497D03*
G01*
X1625600Y-828497D03*
G01*
X1498600Y-828497D03*
D29*
G01*
X4240924Y177800D03*
G01*
X4090275Y177800D03*
D49*
G01*
X5384801Y-673101D03*
D50*
G01*
X5384800Y-927100D03*
G01*
X5384800Y-1181100D03*
G01*
X5384800Y-1435100D03*
G01*
X5384800Y-1689100D03*
G01*
X5384800Y-1943100D03*
G01*
X5384800Y-2197100D03*
G01*
X5384800Y-2451100D03*
G01*
X5384800Y-2705100D03*
G01*
X5384800Y-2959100D03*
G01*
X5384800Y-3213100D03*
G01*
X5384800Y-3467100D03*
G01*
X5384800Y-3721100D03*
G01*
X5384800Y-3975100D03*
G01*
X5384800Y-4229100D03*
D49*
G01*
X1003301Y-4216401D03*
D50*
G01*
X1003300Y-3962400D03*
G01*
X1003300Y-3708400D03*
G01*
X1003300Y-3454400D03*
G01*
X1003300Y-3200400D03*
G01*
X1003300Y-2946400D03*
G01*
X1003300Y-2692400D03*
G01*
X1003300Y-2438400D03*
G01*
X1003300Y-2184400D03*
G01*
X1003300Y-1930400D03*
G01*
X1003300Y-1676400D03*
G01*
X1003300Y-1422400D03*
G01*
X1003300Y-1168400D03*
G01*
X1003300Y-914400D03*
G01*
X1003300Y-660400D03*
D12*
G01*
X5041900Y-3759200D03*
G01*
X5041900Y-4013200D03*
D51*
G01*
X5041900Y-4267200D03*
D12*
G01*
X1409700Y-4279900D03*
D13*
G01*
X1663700Y-4279900D03*
D52*
G01*
X5257749Y-25400D03*
D53*
G01*
X5410248Y-172900D03*
G01*
X5410248Y122100D03*
D52*
G01*
X5245049Y2374900D03*
D53*
G01*
X5397548Y2227399D03*
G01*
X5397548Y2522400D03*
M02*
